<?xml version="1.0" standalone="no"?>
<!DOCTYPE svg PUBLIC "-//W3C//DTD SVG 20010904//EN"
 "http://www.w3.org/TR/2001/REC-SVG-20010904/DTD/svg10.dtd">
<svg version="1.0" xmlns="http://www.w3.org/2000/svg"
 width="512.000000pt" height="512.000000pt" viewBox="0 0 512.000000 512.000000"
 preserveAspectRatio="xMidYMid meet">
<metadata>
Created by potrace 1.14, written by Peter Selinger 2001-2017
</metadata>
<g transform="translate(0.000000,512.000000) scale(0.100000,-0.100000)"
fill="#000000" stroke="none">
<path d="M2430 5110 c-19 -4 -50 -10 -68 -14 -86 -17 -224 -83 -302 -144 -66
-52 -117 -107 -216 -233 -49 -63 -92 -118 -96 -124 -107 -136 -250 -321 -336
-435 -31 -41 -59 -77 -62 -80 -6 -4 -67 -83 -365 -469 -33 -43 -109 -142 -170
-221 -60 -78 -123 -159 -140 -180 -16 -20 -41 -52 -55 -70 -14 -18 -137 -177
-274 -354 -285 -367 -311 -404 -331 -481 -18 -71 -14 -193 10 -260 39 -112
129 -210 242 -263 52 -24 69 -27 168 -27 l110 0 0 -785 1 -785 22 -41 c27 -53
70 -96 119 -120 37 -18 94 -19 1848 -22 2032 -3 1858 -9 1940 73 78 78 75 40
75 912 l0 773 28 -5 c46 -9 155 -7 202 4 138 31 259 139 313 278 24 61 32 181
17 245 -23 95 -65 162 -261 408 -11 14 -59 76 -107 138 -48 63 -111 144 -139
180 l-53 66 -1 746 c-1 410 -1 748 0 752 4 29 -47 125 -88 166 -81 81 -98 84
-475 84 -276 0 -332 -2 -375 -17 -94 -31 -171 -124 -189 -227 l-7 -39 -110
143 c-131 170 -204 245 -302 309 -75 49 -205 101 -283 114 -62 10 -247 13
-290 5z"/>
</g>
</svg>
